<svg width="157" height="33" viewBox="0 0 157 33" fill="none" xmlns="http://www.w3.org/2000/svg">
<path d="M8.75 11.8334V9.92429C8.75 7.11266 11.1005 4.83337 14 4.83337C16.8995 4.83337 19.25 7.11266 19.25 9.92429V11.8334" stroke="white" stroke-width="3"/>
<path d="M16.1953 11.25H11.8049C7.2681 11.25 5.51316 12.4026 4.25853 16.7768C3.12846 20.7168 2.56343 22.6867 3.15419 24.2145C3.51596 25.15 4.15829 25.9613 4.99982 26.5455C8.04355 28.6585 19.8177 28.755 23.0003 26.5455C23.8418 25.9613 24.4842 25.15 24.846 24.2145C25.4367 22.6867 24.8717 20.7168 23.7416 16.7768C22.5369 12.5768 20.9199 11.25 16.1953 11.25Z" stroke="white" stroke-width="3"/>
<path d="M12.8333 15.3334H15.1666" stroke="white" stroke-width="3" stroke-linecap="round"/>
<path d="M32.9023 20.3809H36.8809C37.0723 22.0078 38.7676 23.0742 40.9551 23.0742C43.1562 23.0742 44.6602 22.0215 44.6602 20.5723C44.6602 19.2871 43.7168 18.5762 41.3379 18.043L38.7676 17.4824C35.1309 16.7031 33.3398 14.8574 33.3398 11.9727C33.3398 8.33594 36.4844 5.92969 40.8867 5.92969C45.4805 5.92969 48.3652 8.29492 48.4336 11.8633H44.5645C44.4277 10.1953 42.9648 9.18359 40.9004 9.18359C38.8633 9.18359 37.4961 10.1543 37.4961 11.6172C37.4961 12.834 38.4531 13.5176 40.7227 14.0371L43.1152 14.543C47.0664 15.3906 48.7891 17.0859 48.7891 20.0938C48.7891 23.9219 45.6855 26.3418 40.791 26.3418C36.0469 26.3418 33.0254 24.0859 32.9023 20.3809ZM51.0859 26V6.27148H55.0098V13.9551H55.0918C55.8711 12.1094 57.4707 11.0703 59.6992 11.0703C62.9531 11.0703 64.8125 13.1758 64.8125 16.5664V26H60.8203V17.4141C60.8203 15.5273 59.8906 14.3789 58.0723 14.3789C56.1855 14.3789 55.0781 15.7051 55.0781 17.6328V26H51.0859ZM74.0957 26.3145C69.666 26.3145 66.8359 23.4707 66.8359 18.6582C66.8359 13.9141 69.707 11.0293 74.0957 11.0293C78.4844 11.0293 81.3555 13.9004 81.3555 18.6582C81.3555 23.4844 78.5254 26.3145 74.0957 26.3145ZM74.0957 23.2656C76.0508 23.2656 77.2949 21.6113 77.2949 18.6719C77.2949 15.7598 76.0371 14.0781 74.0957 14.0781C72.1543 14.0781 70.8828 15.7598 70.8828 18.6719C70.8828 21.6113 72.127 23.2656 74.0957 23.2656ZM91.9785 11.1113C95.6973 11.1113 97.9805 13.9414 97.9805 18.6719C97.9805 23.3887 95.7109 26.2324 92.0469 26.2324C89.9141 26.2324 88.2734 25.1934 87.4941 23.5391H87.4121V30.7852H83.4199V11.3438H87.3574V13.9004H87.4395C88.2324 12.1777 89.8594 11.1113 91.9785 11.1113ZM90.6387 23.0195C92.6348 23.0195 93.8926 21.3379 93.8926 18.6719C93.8926 16.0195 92.6348 14.3105 90.6387 14.3105C88.6836 14.3105 87.3984 16.0469 87.3984 18.6719C87.3984 21.3242 88.6836 23.0195 90.6387 23.0195ZM104.338 26H100.387V6.27148H103.832L113.047 19.123H113.156V6.27148H117.107V26H113.689L104.461 13.0801H104.338V26ZM126.787 26.3145C122.357 26.3145 119.527 23.4707 119.527 18.6582C119.527 13.9141 122.398 11.0293 126.787 11.0293C131.176 11.0293 134.047 13.9004 134.047 18.6582C134.047 23.4844 131.217 26.3145 126.787 26.3145ZM126.787 23.2656C128.742 23.2656 129.986 21.6113 129.986 18.6719C129.986 15.7598 128.729 14.0781 126.787 14.0781C124.846 14.0781 123.574 15.7598 123.574 18.6719C123.574 21.6113 124.818 23.2656 126.787 23.2656ZM156.537 11.3438L152.654 26H148.402L145.75 15.6367H145.668L143.029 26H138.832L134.936 11.3438H138.955L141.17 22.2129H141.252L143.85 11.3438H147.678L150.289 22.2129H150.371L152.6 11.3438H156.537Z" fill="white"/>
</svg>
