<svg width="157" height="34" viewBox="0 0 157 34" fill="none" xmlns="http://www.w3.org/2000/svg">
<path d="M8.75 12.3333V10.4243C8.75 7.61262 11.1005 5.33334 14 5.33334C16.8995 5.33334 19.25 7.61262 19.25 10.4243V12.3333" stroke="#3F3A24" stroke-width="3"/>
<path d="M16.1953 11.75H11.8049C7.2681 11.75 5.51316 12.9026 4.25853 17.2768C3.12846 21.2168 2.56343 23.1867 3.15419 24.7145C3.51596 25.65 4.15829 26.4613 4.99982 27.0455C8.04355 29.1585 19.8177 29.255 23.0003 27.0455C23.8418 26.4613 24.4842 25.65 24.846 24.7145C25.4367 23.1867 24.8717 21.2168 23.7416 17.2768C22.5369 13.0768 20.9199 11.75 16.1953 11.75Z" stroke="#3F3A24" stroke-width="3"/>
<path d="M12.8333 15.8333H15.1666" stroke="#3F3A24" stroke-width="3" stroke-linecap="round"/>
<path d="M32.9023 20.8809H36.8809C37.0723 22.5078 38.7676 23.5742 40.9551 23.5742C43.1562 23.5742 44.6602 22.5215 44.6602 21.0723C44.6602 19.7871 43.7168 19.0762 41.3379 18.543L38.7676 17.9824C35.1309 17.2031 33.3398 15.3574 33.3398 12.4727C33.3398 8.83594 36.4844 6.42969 40.8867 6.42969C45.4805 6.42969 48.3652 8.79492 48.4336 12.3633H44.5645C44.4277 10.6953 42.9648 9.68359 40.9004 9.68359C38.8633 9.68359 37.4961 10.6543 37.4961 12.1172C37.4961 13.334 38.4531 14.0176 40.7227 14.5371L43.1152 15.043C47.0664 15.8906 48.7891 17.5859 48.7891 20.5938C48.7891 24.4219 45.6855 26.8418 40.791 26.8418C36.0469 26.8418 33.0254 24.5859 32.9023 20.8809ZM51.0859 26.5V6.77148H55.0098V14.4551H55.0918C55.8711 12.6094 57.4707 11.5703 59.6992 11.5703C62.9531 11.5703 64.8125 13.6758 64.8125 17.0664V26.5H60.8203V17.9141C60.8203 16.0273 59.8906 14.8789 58.0723 14.8789C56.1855 14.8789 55.0781 16.2051 55.0781 18.1328V26.5H51.0859ZM74.0957 26.8145C69.666 26.8145 66.8359 23.9707 66.8359 19.1582C66.8359 14.4141 69.707 11.5293 74.0957 11.5293C78.4844 11.5293 81.3555 14.4004 81.3555 19.1582C81.3555 23.9844 78.5254 26.8145 74.0957 26.8145ZM74.0957 23.7656C76.0508 23.7656 77.2949 22.1113 77.2949 19.1719C77.2949 16.2598 76.0371 14.5781 74.0957 14.5781C72.1543 14.5781 70.8828 16.2598 70.8828 19.1719C70.8828 22.1113 72.127 23.7656 74.0957 23.7656ZM91.9785 11.6113C95.6973 11.6113 97.9805 14.4414 97.9805 19.1719C97.9805 23.8887 95.7109 26.7324 92.0469 26.7324C89.9141 26.7324 88.2734 25.6934 87.4941 24.0391H87.4121V31.2852H83.4199V11.8438H87.3574V14.4004H87.4395C88.2324 12.6777 89.8594 11.6113 91.9785 11.6113ZM90.6387 23.5195C92.6348 23.5195 93.8926 21.8379 93.8926 19.1719C93.8926 16.5195 92.6348 14.8105 90.6387 14.8105C88.6836 14.8105 87.3984 16.5469 87.3984 19.1719C87.3984 21.8242 88.6836 23.5195 90.6387 23.5195ZM104.338 26.5H100.387V6.77148H103.832L113.047 19.623H113.156V6.77148H117.107V26.5H113.689L104.461 13.5801H104.338V26.5ZM126.787 26.8145C122.357 26.8145 119.527 23.9707 119.527 19.1582C119.527 14.4141 122.398 11.5293 126.787 11.5293C131.176 11.5293 134.047 14.4004 134.047 19.1582C134.047 23.9844 131.217 26.8145 126.787 26.8145ZM126.787 23.7656C128.742 23.7656 129.986 22.1113 129.986 19.1719C129.986 16.2598 128.729 14.5781 126.787 14.5781C124.846 14.5781 123.574 16.2598 123.574 19.1719C123.574 22.1113 124.818 23.7656 126.787 23.7656ZM156.537 11.8438L152.654 26.5H148.402L145.75 16.1367H145.668L143.029 26.5H138.832L134.936 11.8438H138.955L141.17 22.7129H141.252L143.85 11.8438H147.678L150.289 22.7129H150.371L152.6 11.8438H156.537Z" fill="black"/>
</svg>
